<svg width="80" height="64" viewBox="0 0 80 64" fill="none" xmlns="http://www.w3.org/2000/svg">
<path d="M0 2C0 0.895431 0.895431 0 2 0H30C31.1046 0 32 0.895431 32 2V62C32 63.1046 31.1046 64 30 64H2C0.895431 64 0 63.1046 0 62V2Z" fill="#DEE5EE"/>
<path d="M36 2C36 0.895431 36.8954 0 38 0H66C67.1046 0 68 0.895431 68 2V62C68 63.1046 67.1046 64 66 64H38C36.8954 64 36 63.1046 36 62V2Z" fill="#DEE5EE"/>
<path d="M72 2C72 0.895431 72.8954 0 74 0H78C79.1046 0 80 0.895431 80 2V62C80 63.1046 79.1046 64 78 64H74C72.8954 64 72 63.1046 72 62V2Z" fill="#1DAFEC"/>
</svg>
