<svg width="56" height="64" viewBox="0 0 56 64" fill="none" xmlns="http://www.w3.org/2000/svg">
<path d="M12 2C12 0.895431 12.8954 0 14 0H42C43.1046 0 44 0.895431 44 2V62C44 63.1046 43.1046 64 42 64H14C12.8954 64 12 63.1046 12 62V2Z" fill="#1DAFEC"/>
<path d="M48 2C48 0.895431 48.8954 0 50 0H54C55.1046 0 56 0.895431 56 2V62C56 63.1046 55.1046 64 54 64H50C48.8954 64 48 63.1046 48 62V2Z" fill="#DEE5EE"/>
<path d="M0 2C0 0.895431 0.895431 0 2 0H6C7.10457 0 8 0.895431 8 2V62C8 63.1046 7.10457 64 6 64H2C0.895431 64 0 63.1046 0 62V2Z" fill="#DEE5EE"/>
</svg>
